<svg xmlns="http://www.w3.org/2000/svg" width="1747" height="643" fill="none" nighteye="disabled"><path fill="#23700C" d="M.461 257.188h128.594v128.594H.461zm385.783 128.595H257.65V257.189h128.594z"/><path fill="#C7EEAA" d="m129.057 257.188 128.594-128.594v128.594L129.057 385.782V257.188z"/><path fill="#9ADF76" d="M257.649 385.781 129.055 514.375V385.781l128.594-128.594v128.594z"/><path fill="#6AC73F" d="M.461 257.188 257.65 0v128.594L129.055 257.188H.461z"/><path fill="#48AA20" d="M386.244 385.783 129.056 642.971V514.377L257.65 385.783h128.594z"/><path fill="#6ECC41" d="M1520.95 434.509v-52.165h173.89v-34.776h-173.89v-52.165h173.89v-34.777h-173.89v-52.164H1747v226.047h-226.05z"/><path fill="#212121" d="m1312.56 321.485-89.72-113.023h65.73l56.68 71.639 56.69-71.639h65.72l-89.72 113.023 89.72 113.024h-65.72l-56.69-71.64-56.68 71.64h-65.73l89.72-113.024zm-97.72 113.024h-52.17v-86.941h-121.71v86.941h-52.168V208.462h226.048v226.047zm-52.17-139.106v-34.777h-121.71v34.777h121.71zm-278.206-34.777v173.883H832.3V260.626h-86.942v-52.164h226.047v52.164h-86.941zM727.97 208.462v52.164H554.088v34.777H727.97v139.106H501.923v-52.165h173.882v-34.776H501.923V208.462H727.97z"/></svg>